<svg width="104" height="104" viewBox="0 0 104 104" fill="none" xmlns="http://www.w3.org/2000/svg">
<path d="M33.25 27C12.4167 43.6667 10.3333 66.5833 27 95.75M70.75 77C91.5833 60.3333 93.6667 37.8652 77 8.69858M52 2C38.7392 2 26.0215 7.26784 16.6447 16.6447C7.26784 26.0215 2 38.7392 2 52C2 65.2608 7.26784 77.9785 16.6447 87.3553C26.0215 96.7322 38.7392 102 52 102C65.2608 102 77.9785 96.7322 87.3553 87.3553C96.7322 77.9785 102 65.2608 102 52C102 38.7392 96.7322 26.0215 87.3553 16.6447C77.9785 7.26784 65.2608 2 52 2ZM52 20.75C43.712 20.75 35.7634 24.0424 29.9029 29.9029C24.0424 35.7634 20.75 43.712 20.75 52C20.75 60.288 24.0424 68.2366 29.9029 74.0971C35.7634 79.9576 43.712 83.25 52 83.25C60.288 83.25 68.2366 79.9576 74.0971 74.0971C79.9576 68.2366 83.25 60.288 83.25 52C83.25 43.712 79.9576 35.7634 74.0971 29.9029C68.2366 24.0424 60.288 20.75 52 20.75Z" stroke="#7CD2B3" stroke-width="3" stroke-linejoin="round"/>
</svg>
